<svg xmlns="http://www.w3.org/2000/svg" viewBox="0 0 60.61 19.41"><defs><style>.cls-1{fill:none;stroke:#ff8a00;}.cls-2{fill:#fffdfd;}</style></defs><g id="Шар_2" data-name="Шар 2"><g id="Шар_1-2" data-name="Шар 1"><line class="cls-1" x1="0.5" x2="0.5" y2="19.41"/><path class="cls-2" d="M11.32,4.34a1.23,1.23,0,0,1-.34,1A1.58,1.58,0,0,1,9.9,5.6H8.75V1.27h2.34v.48H9.25V3.1h.58A1.74,1.74,0,0,1,11,3.4,1.1,1.1,0,0,1,11.32,4.34Zm-2.07.8h.6A1.22,1.22,0,0,0,10.59,5a.76.76,0,0,0,.22-.61.69.69,0,0,0-.23-.59,1.39,1.39,0,0,0-.81-.17H9.25Zm4,.46H11.83V5.29l.46-.12V1.71l-.46-.12V1.27h1.42v.32l-.46.12V5.17l.46.12Zm3.28-3a1.27,1.27,0,0,1-.42,1A1.74,1.74,0,0,1,15,3.92H14.5V5.6H14V1.27h1C16,1.27,16.53,1.7,16.53,2.55Zm-2,.9h.4a1.38,1.38,0,0,0,.85-.21A.82.82,0,0,0,16,2.57a.79.79,0,0,0-.24-.63,1.24,1.24,0,0,0-.77-.2h-.5Zm3.84-.07L16.82,1.27h.54l1.51,2.1V1.27h.47v2.1l1.51-2.1h.55l-1.53,2.1L21.45,5.6h-.57L19.34,3.41V5.6h-.47V3.41L17.33,5.6h-.57ZM24.46,5.6,24,4.26H22.43L22,5.6h-.5L23,1.25h.44L25,5.6Zm-.62-1.82L23.4,2.47l-.19-.65c-.05.23-.11.45-.17.65L22.6,3.78ZM10.49,16.52l-1.3-3.79h0c0,.31,0,.7,0,1.17v2.62H8.75V12.19h.74l1.21,3.55h0L12,12.19h.73v4.33h-.49V13.86c0-.3,0-.67,0-1.13h0l-1.32,3.79Zm5.46,0h-2.2V12.19H16v.48h-1.7V14h1.6v.48h-1.6V16H16Zm2.11,0h-.5V12.67H16.33v-.48h3v.48H18.06Zm4.1,0-.47-1.34H20.13l-.47,1.34h-.5l1.53-4.35h.45l1.53,4.35Zm-.62-1.82-.44-1.31-.19-.65c-.05.23-.11.45-.17.65l-.45,1.31Zm4.51,1.82h-.5V12.67H24.31l-.09.71c-.11,1-.21,1.67-.29,2.09a2.3,2.3,0,0,1-.33.88.7.7,0,0,1-.56.24.78.78,0,0,1-.35-.07v-.46a.61.61,0,0,0,.3.08c.14,0,.25-.1.34-.3a7.34,7.34,0,0,0,.27-1.33c.1-.7.2-1.47.29-2.32h2.16Zm3.9,0h-.5V12.67H28.21l-.09.71c-.11,1-.21,1.67-.29,2.09a2.3,2.3,0,0,1-.33.88.7.7,0,0,1-.56.24.78.78,0,0,1-.35-.07v-.46a.61.61,0,0,0,.3.08c.14,0,.25-.1.34-.3a7.34,7.34,0,0,0,.27-1.33c.1-.7.2-1.47.29-2.32H30Zm4.5-2.17A2.54,2.54,0,0,1,34,16a1.83,1.83,0,0,1-2.68,0,2.53,2.53,0,0,1-.47-1.65,2.5,2.5,0,0,1,.47-1.64,1.63,1.63,0,0,1,1.35-.59,1.6,1.6,0,0,1,1.33.6A2.51,2.51,0,0,1,34.45,14.35Zm-3.11,0a2.2,2.2,0,0,0,.33,1.31,1.26,1.26,0,0,0,1.92,0,2.22,2.22,0,0,0,.33-1.32,2.2,2.2,0,0,0-.32-1.3,1.26,1.26,0,0,0-1.93,0A2.17,2.17,0,0,0,31.34,14.35Zm7.41,0A2.54,2.54,0,0,1,38.27,16a1.63,1.63,0,0,1-1.33.59A1.64,1.64,0,0,1,35.59,16a2.59,2.59,0,0,1-.47-1.65,2.56,2.56,0,0,1,.47-1.64,1.65,1.65,0,0,1,1.35-.59,1.59,1.59,0,0,1,1.33.6A2.51,2.51,0,0,1,38.75,14.35Zm-3.11,0A2.2,2.2,0,0,0,36,15.66a1.12,1.12,0,0,0,1,.45,1.13,1.13,0,0,0,1-.44,2.22,2.22,0,0,0,.33-1.32,2.13,2.13,0,0,0-.33-1.3,1.12,1.12,0,0,0-1-.45,1.14,1.14,0,0,0-1,.45A2.17,2.17,0,0,0,35.64,14.35Zm6.55.91a1.2,1.2,0,0,1-.35,1,1.55,1.55,0,0,1-1.07.31H39.62V12.19H42v.48H40.12V14h.58a1.74,1.74,0,0,1,1.12.3A1.11,1.11,0,0,1,42.19,15.26Zm-2.07.8h.6a1.16,1.16,0,0,0,.73-.19.73.73,0,0,0,.23-.61.69.69,0,0,0-.23-.59,1.39,1.39,0,0,0-.81-.17h-.52Zm5.41-2.59a1.3,1.3,0,0,1-.41,1,1.76,1.76,0,0,1-1.16.35h-.45v1.68H43V12.19h1C45,12.19,45.53,12.62,45.53,13.47Zm-2,.9h.39a1.38,1.38,0,0,0,.85-.21.79.79,0,0,0,.26-.67.76.76,0,0,0-.24-.62,1.15,1.15,0,0,0-.76-.21h-.5Zm6.27,0A2.54,2.54,0,0,1,49.3,16a1.83,1.83,0,0,1-2.68,0,2.53,2.53,0,0,1-.47-1.65,2.5,2.5,0,0,1,.47-1.64A1.63,1.63,0,0,1,48,12.12a1.6,1.6,0,0,1,1.33.6A2.51,2.51,0,0,1,49.78,14.35Zm-3.11,0A2.2,2.2,0,0,0,47,15.66a1.26,1.26,0,0,0,1.92,0,2.22,2.22,0,0,0,.33-1.32,2.2,2.2,0,0,0-.32-1.3,1.26,1.26,0,0,0-1.93,0A2.17,2.17,0,0,0,46.67,14.35Zm6.55.91a1.23,1.23,0,0,1-.35,1,1.55,1.55,0,0,1-1.07.31H50.65V12.19H53v.48H51.14V14h.59a1.76,1.76,0,0,1,1.12.3A1.11,1.11,0,0,1,53.22,15.26Zm-2.08.8h.61a1.18,1.18,0,0,0,.73-.19.76.76,0,0,0,.23-.61.67.67,0,0,0-.24-.59,1.36,1.36,0,0,0-.8-.17h-.53Zm5.77.46h-.6l-1.78-2.19v2.19H54V12.19h.49v2.1l1.74-2.1h.56L55.12,14.3Zm.54-4.33h.46v2.38c0,.17,0,.39,0,.67s0,.45,0,.54h0l2.17-3.59h.55v4.33h-.47V14.17c0-.21,0-.45,0-.72s0-.45,0-.53h0L58,16.52h-.55Z"/></g></g></svg>